<svg width="75" height="21" viewBox="0 0 75 21" fill="none" xmlns="http://www.w3.org/2000/svg">
<g id="Logo">
<path id="Vector" d="M5.83026 16.4042C4.67949 16.4042 3.66534 16.1708 2.78683 15.7041C1.90833 15.2374 1.22423 14.5784 0.734536 13.7262C0.244845 12.8745 0 11.878 0 10.7371V10.4705C0 9.31498 0.240928 8.31503 0.722784 7.47016C1.20464 6.62578 1.8809 5.97024 2.75157 5.50353C3.62224 5.03682 4.62464 4.80347 5.75975 4.80347C6.89485 4.80347 7.85856 5.03682 8.69789 5.50353C9.53722 5.97024 10.1905 6.62578 10.6567 7.47016C11.1228 8.31454 11.3564 9.30031 11.3564 10.426V11.3369H2.70456C2.73541 12.1964 3.0542 12.8853 3.66093 13.4038C4.26717 13.9224 5.01346 14.1817 5.8998 14.1817C6.78614 14.1817 7.41539 14.0002 7.83555 13.6372C8.25521 13.2742 8.574 12.8632 8.79191 12.4039L11.0073 13.4929C10.7894 13.893 10.4745 14.3191 10.0627 14.7707C9.65034 15.2227 9.10238 15.6077 8.41877 15.9262C7.73467 16.2447 6.87183 16.4042 5.83026 16.4042ZM2.72856 9.40353H8.62884C8.56665 8.67803 8.2748 8.09978 7.75426 7.67025C7.23323 7.24072 6.56088 7.02596 5.73722 7.02596C4.91356 7.02596 4.19812 7.24072 3.68492 7.67025C3.17173 8.10027 2.85294 8.67803 2.72856 9.40353Z" fill="black"/>
<path id="Vector_2" d="M37.5629 7.38113C37.0811 6.53675 36.4396 5.89588 35.6385 5.45852C34.8378 5.02166 34.166 4.80249 33.2336 4.80249C32.1445 4.80249 31.3091 4.98056 30.7259 5.33622C30.1431 5.69139 29.7196 6.0989 29.4551 6.55827H28.8641V5.11363H26.2286L24.4764 5.11412H24.4769L21.3752 5.11363L18.5531 8.91383H17.964L15.1424 5.11363H12.0172L16.2379 10.5586L11.9467 16.0916H15.1184L17.9635 12.2243H18.5526L21.3978 16.0916H24.546L20.2548 10.5586L22.976 7.04748C23.8198 7.05776 26.6056 7.04748 26.6056 7.04748V20.5365H28.8626V14.7139H29.4537C29.6246 14.981 29.9086 15.2472 30.2117 15.5138C30.5148 15.7809 30.9115 15.9952 31.4012 16.1581C31.8909 16.321 32.501 16.4027 33.2321 16.4027C34.1802 16.4027 34.8559 16.184 35.6482 15.7467C36.4411 15.3103 37.0791 14.6689 37.561 13.8241C38.0423 12.9797 38.2838 11.965 38.2838 10.7792V10.424C38.2838 9.23867 38.0423 8.22404 37.561 7.37917L37.5629 7.38113ZM35.6042 10.7151C35.6042 11.8261 35.2888 12.6813 34.6596 13.282C34.0298 13.8818 33.2253 14.1817 32.2454 14.1817C31.2655 14.1817 30.4771 13.8818 29.8322 13.282C29.1863 12.6813 28.8646 11.8261 28.8646 10.7151V10.4925C28.8646 9.36684 29.1863 8.5068 29.8322 7.91437C30.4771 7.32242 31.2817 7.02547 32.2454 7.02547C33.2091 7.02547 34.0102 7.32242 34.6473 7.91437C35.2854 8.50729 35.6042 9.36684 35.6042 10.4925V10.7151Z" fill="black"/>
<path id="Vector_3" d="M40.3455 16.0931V0.536621H43.0275V16.0931H40.3455Z" fill="black"/>
<path id="Vector_4" d="M51.1049 16.4042C49.9541 16.4042 48.9243 16.1781 48.0149 15.7261C47.1056 15.2746 46.3901 14.6298 45.8696 13.7927C45.3486 12.9557 45.0885 11.9518 45.0885 10.7816V10.426C45.0885 9.25579 45.3486 8.24801 45.8696 7.40363C46.3901 6.55925 47.1056 5.91447 48.0149 5.47026C48.9243 5.02557 49.9541 4.80347 51.1049 4.80347C52.2556 4.80347 53.2816 5.02557 54.1831 5.47026C55.0846 5.91496 55.7956 6.55925 56.3167 7.40363C56.8372 8.24801 57.0977 9.25579 57.0977 10.426V10.7816C57.0977 11.9523 56.8372 12.9562 56.3167 13.7927C55.7956 14.6298 55.0841 15.2746 54.1831 15.7261C53.2811 16.1777 52.2552 16.4042 51.1049 16.4042ZM51.1049 14.1371C52.0843 14.1371 52.8849 13.8373 53.5068 13.237C54.1282 12.6367 54.4397 11.7963 54.4397 10.7146V10.4925C54.4397 9.41136 54.1287 8.56991 53.5068 7.97014C52.8849 7.36987 52.0843 7.06999 51.1049 7.06999C50.1255 7.06999 49.3244 7.36987 48.7029 7.97014C48.081 8.56991 47.7701 9.41136 47.7701 10.4925V10.7146C47.7701 11.7963 48.081 12.6367 48.7029 13.237C49.3244 13.8368 50.1255 14.1371 51.1049 14.1371Z" fill="black"/>
<path id="Vector_5" d="M59.9598 16.0932L58.1642 5.11475H60.8227L62.0587 14.3819H62.4553L64.2045 5.11475H68.4957L70.2448 14.3819H70.6415L71.8775 5.11475H74.536L72.7403 16.0932H68.2861L66.5604 6.82601H66.1637L64.4146 16.0932H59.9603H59.9598Z" fill="black"/>
</g>
</svg>
